<svg width="33" height="33" viewBox="0 0 33 33" fill="none" xmlns="http://www.w3.org/2000/svg">
<path d="M11.9137 11.9963V10.4855C11.0794 10.4855 10.403 11.1619 10.403 11.9963H11.9137ZM12.0582 11.9963H13.5689C13.5689 11.1619 12.8926 10.4855 12.0582 10.4855V11.9963ZM20.6155 11.9963V10.4855C19.7811 10.4855 19.1048 11.1619 19.1048 11.9963H20.6155ZM20.7439 11.9963H22.2546C22.2546 11.1619 21.5783 10.4855 20.7439 10.4855V11.9963ZM12.0582 12.1124V13.6231C12.8926 13.6231 13.5689 12.9468 13.5689 12.1124H12.0582ZM11.9137 12.1124H10.403C10.403 12.9468 11.0794 13.6231 11.9137 13.6231V12.1124ZM20.7439 12.1124V13.6231C21.5783 13.6231 22.2546 12.9468 22.2546 12.1124H20.7439ZM20.6155 12.1124H19.1048C19.1048 12.9468 19.7811 13.6231 20.6155 13.6231V12.1124ZM12.5214 19.962C12.0823 19.2526 11.1512 19.0335 10.4417 19.4726C9.73231 19.9118 9.5132 20.8429 9.95234 21.5523L12.5214 19.962ZM22.5769 21.5523C23.016 20.8429 22.7969 19.9118 22.0875 19.4726C21.3781 19.0335 20.447 19.2526 20.0078 19.962L22.5769 21.5523ZM30.7675 16.3471H29.2568C29.2568 23.5225 23.44 29.3393 16.2646 29.3393V30.85V32.3608C25.1087 32.3608 32.2782 25.1912 32.2782 16.3471H30.7675ZM16.2646 30.85V29.3393C9.08924 29.3393 3.27244 23.5225 3.27244 16.3471H1.76172H0.251C0.251 25.1912 7.42054 32.3608 16.2646 32.3608V30.85ZM1.76172 16.3471H3.27244C3.27244 9.17176 9.08924 3.35496 16.2646 3.35496V1.84424V0.333519C7.42054 0.333519 0.251 7.50306 0.251 16.3471H1.76172ZM16.2646 1.84424V3.35496C23.44 3.35496 29.2568 9.17176 29.2568 16.3471H30.7675H32.2782C32.2782 7.50306 25.1087 0.333519 16.2646 0.333519V1.84424ZM11.9137 11.9963V13.507H12.0582V11.9963V10.4855H11.9137V11.9963ZM20.6155 11.9963V13.507H20.7439V11.9963V10.4855H20.6155V11.9963ZM12.0582 11.9963H10.5475V12.1124H12.0582H13.5689V11.9963H12.0582ZM12.0582 12.1124V10.6017H11.9137V12.1124V13.6231H12.0582V12.1124ZM11.9137 12.1124H13.4245V11.9963H11.9137H10.403V12.1124H11.9137ZM20.7439 11.9963H19.2332V12.1124H20.7439H22.2546V11.9963H20.7439ZM20.7439 12.1124V10.6017H20.6155V12.1124V13.6231H20.7439V12.1124ZM20.6155 12.1124H22.1262V11.9963H20.6155H19.1048V12.1124H20.6155ZM16.2646 23.5985V22.0878C14.7089 22.0878 13.3223 21.2558 12.5214 19.962L11.2369 20.7572L9.95234 21.5523C11.2663 23.675 13.5929 25.1092 16.2646 25.1092V23.5985ZM21.2924 20.7572L20.0078 19.962C19.207 21.2558 17.8203 22.0878 16.2646 22.0878V23.5985V25.1092C18.9364 25.1092 21.263 23.675 22.5769 21.5523L21.2924 20.7572Z" fill="#FFD832"/>
</svg>
