<svg width="39" height="39" viewBox="0 0 39 39" fill="none" xmlns="http://www.w3.org/2000/svg">
<path d="M1.92578 14.4133C1.92578 13.7029 2.28734 13.0365 2.89607 12.6248L17.8955 2.48128C18.6961 1.93983 19.7695 1.93983 20.5701 2.48128L35.5696 12.6249C36.1783 13.0365 36.5398 13.7029 36.5398 14.4133V33.3975C36.5398 35.2155 34.9901 36.6893 33.0784 36.6893H5.38719C3.47551 36.6893 1.92578 35.2155 1.92578 33.3975V14.4133Z" stroke="#FFD832" stroke-width="3.84601"/>
<path d="M23.5596 21.5456C23.5596 23.9352 21.6224 25.8724 19.2328 25.8724C16.8432 25.8724 14.9061 23.9352 14.9061 21.5456C14.9061 19.156 16.8432 17.2188 19.2328 17.2188C21.6224 17.2188 23.5596 19.156 23.5596 21.5456Z" stroke="#FFD832" stroke-width="3.84601"/>
</svg>
