<svg width="33" height="33" viewBox="0 0 33 33" fill="none" xmlns="http://www.w3.org/2000/svg">
<path d="M16.6104 18.9204C20.8458 18.9205 24.5931 19.7296 27.2148 20.9595C29.9786 22.256 30.8955 23.6932 30.8955 24.6743C30.8955 25.9178 30.2187 27.2766 28.0205 28.4224C25.7633 29.5989 22.0719 30.4282 16.6104 30.4282C11.1485 30.4282 7.45654 29.599 5.19922 28.4224C3.00103 27.2766 2.32524 25.9178 2.3252 24.6743C2.3252 23.6932 3.24116 22.256 6.00488 20.9595C8.62674 19.7295 12.3747 18.9204 16.6104 18.9204ZM16.6104 1.85791C19.26 1.85822 21.6426 4.4403 21.6426 7.23193C21.6424 9.93802 19.3409 12.3479 16.6104 12.3481C13.8796 12.3481 11.5773 9.93818 11.5771 7.23193C11.5771 4.44013 13.9605 1.85791 16.6104 1.85791Z" stroke="#FFD832" stroke-width="3.57129"/>
</svg>
