<svg width="31" height="31" viewBox="0 0 31 31" fill="none" xmlns="http://www.w3.org/2000/svg">
<path d="M6.54822 15.852C6.54822 17.4175 5.2791 18.6867 3.71356 18.6867C2.14803 18.6867 0.878906 17.4175 0.878906 15.852C0.878906 14.2865 2.14803 13.0173 3.71356 13.0173C5.2791 13.0173 6.54822 14.2865 6.54822 15.852ZM6.54822 15.852H23.5562M23.5562 15.852C23.5562 17.4175 24.8253 18.6867 26.3908 18.6867C27.9564 18.6867 29.2255 17.4175 29.2255 15.852C29.2255 14.2865 27.9564 13.0173 26.3908 13.0173C24.8253 13.0173 23.5562 14.2865 23.5562 15.852ZM23.5562 4.51337C23.5562 6.07891 24.8253 7.34803 26.3908 7.34803C27.9564 7.34803 29.2255 6.07891 29.2255 4.51337C29.2255 2.94783 27.9564 1.67871 26.3908 1.67871C24.8253 1.67871 23.5562 2.94783 23.5562 4.51337ZM23.5562 4.51337H15.4065C14.6238 4.51337 13.9892 5.14793 13.9892 5.9307V25.7733C13.9892 26.5561 14.6238 27.1906 15.4065 27.1906H23.5562M23.5562 27.1906C23.5562 28.7562 24.8253 30.0253 26.3908 30.0253C27.9564 30.0253 29.2255 28.7562 29.2255 27.1906C29.2255 25.6251 27.9564 24.356 26.3908 24.356C24.8253 24.356 23.5562 25.6251 23.5562 27.1906Z" stroke="#FFD832" stroke-width="1.64806" stroke-linecap="round"/>
</svg>
